PathFileType	4	(X/Y/Z)	RBDS011static.trc
DataRate	CameraRate	NumFrames	NumMarkers	Units	OrigDataRate	OrigDataStartFrame	OrigNumFrames
150.000000	150.000000	4	48	mm	150.000000	93	150
Frame#	Time	L.Ankle			L.Ankle.Medial			L.ASIS			L.GTR			L.Heel.Bottom			L.Heel.Lateral			L.Heel.Top			L.HF			L.Iliac.Crest			L.Knee			L.Knee.Medial			L.MT1			L.MT2			L.MT5			L.PSIS			L.Shank.Bottom.Lateral			L.Shank.Bottom.Medial			L.Shank.Top.Lateral			L.Shank.Top.Medial			L.Thigh.Bottom.Lateral			L.Thigh.Bottom.Medial			L.Thigh.Top.Lateral			L.Thigh.Top.Medial			L.TT			R.Ankle			R.Ankle.Medial			R.ASIS			R.GTR			R.Heel.Bottom			R.Heel.Lateral			R.Heel.Top			R.HF			R.Iliac.Crest			R.Knee			R.Knee.Medial			R.MT1			R.MT2			R.MT5			R.PSIS			R.Shank.Bottom.Lateral			R.Shank.Bottom.Medial			R.Shank.Top.Lateral			R.Shank.Top.Medial			R.Thigh.Bottom.Lateral			R.Thigh.Bottom.Medial			R.Thigh.Top.Lateral			R.Thigh.Top.Medial			R.TT			
		X1	Y1	Z1	X2	Y2	Z2	X3	Y3	Z3	X4	Y4	Z4	X5	Y5	Z5	X6	Y6	Z6	X7	Y7	Z7	X8	Y8	Z8	X9	Y9	Z9	X10	Y10	Z10	X11	Y11	Z11	X12	Y12	Z12	X13	Y13	Z13	X14	Y14	Z14	X15	Y15	Z15	X16	Y16	Z16	X17	Y17	Z17	X18	Y18	Z18	X19	Y19	Z19	X20	Y20	Z20	X21	Y21	Z21	X22	Y22	Z22	X23	Y23	Z23	X24	Y24	Z24	X25	Y25	Z25	X26	Y26	Z26	X27	Y27	Z27	X28	Y28	Z28	X29	Y29	Z29	X30	Y30	Z30	X31	Y31	Z31	X32	Y32	Z32	X33	Y33	Z33	X34	Y34	Z34	X35	Y35	Z35	X36	Y36	Z36	X37	Y37	Z37	X38	Y38	Z38	X39	Y39	Z39	X40	Y40	Z40	X41	Y41	Z41	X42	Y42	Z42	X43	Y43	Z43	X44	Y44	Z44	X45	Y45	Z45	X46	Y46	Z46	X47	Y47	Z47	X48	Y48	Z48	

94	0.62	713.9967041015625	107.3632278442383	1037.177612304688	735.4789428710938	120.7902297973633	1120.456420898438	880.7747192382813	1028.951538085938	1086.99072265625	822.41259765625	919.8251953125	1032.19873046875	638.9974365234375	42.58287048339844	1083.881225585938	663.3779907226563	57.22085952758789	1044.886474609375	649.6624755859375	91.26388549804688	1085.552490234375	751.8444213867188	471.131591796875	1034.954711914063	809.7495727539063	1089.260864257813	1049.172485351563	757.077392578125	537.5773315429688	1040.161010742188	761.6958618164063	517.8297729492188	1161.425659179688	864.8412475585938	54.45630264282227	1124.9658203125	876.585205078125	66.34156799316406	1077.393676757813	836.2655639648438	49.42589950561523	1009.186584472656	706.2805786132813	1043.013549804688	1151.013549804688	707.6006469726563	188.87890625	1035.046875	672.6831665039063	192.9975738525391	1077.636962890625	705.1648559570313	268.8766174316406	1026.084594726563	672.5859985351563	273.5517272949219	1069.235717773438	778.9898071289063	646.3268432617188	1025.953491210938	717.860107421875	647.1063232421875	1065.93212890625	772.8037109375	756.490966796875	1020.848571777344	718.6760864257813	757.6925659179688	1063.73828125	813.7525634765625	455.9529418945313	1080.492309570313	714.1600341796875	107.7373733520508	1416.037475585938	736.458984375	126.0079956054688	1334.001342773438	862.666748046875	1033.134521484375	1341.863403320313	801.9969482421875	924.631591796875	1396.29248046875	640.0250244140625	43.79504776000977	1374.74072265625	666.6774291992188	64.24147796630859	1414.732666015625	650.796875	93.64887237548828	1373.7216796875	750.2659301757813	476.6748046875	1408.438598632813	796.3138427734375	1081.468627929688	1367.792358398438	759.6339111328125	539.0703735351563	1402.219604492188	764.162109375	523.17333984375	1279.927734375	861.8134155273438	57.82746124267578	1327.254516601563	870.4776611328125	71.56510162353516	1372.974731445313	841.9384765625	49.25495147705078	1444.377685546875	698.7481079101563	1046.574462890625	1252.734741210938	701.2379760742188	182.1974029541016	1414.1416015625	669.2955322265625	190.5751037597656	1374.982543945313	705.2257690429688	266.4821166992188	1425.201049804688	671.1484985351563	270.0119323730469	1383.786499023438	758.4484252929688	655.2998657226563	1407.035766601563	706.4712524414063	655.38916015625	1354.233642578125	753.7666625976563	764.8291015625	1407.998291015625	705.6935424804688	765.939453125	1358.322631835938	811.7731323242188	460.3795776367188	1371.295043945313	
95	0.6266666666666667	713.9977416992188	107.3633804321289	1037.17822265625	735.4725952148438	120.7948226928711	1120.44189453125	880.8184814453125	1029.007080078125	1087.134887695313	822.4577026367188	919.8396606445313	1032.374755859375	639.0050659179688	42.57636260986328	1083.884033203125	663.3679809570313	57.21724319458008	1044.880981445313	649.66064453125	91.25804901123047	1085.548706054688	751.8240356445313	471.1386413574219	1034.93359375	809.739990234375	1089.265502929688	1049.146118164063	757.080322265625	537.572509765625	1040.150024414063	761.6930541992188	517.8256225585938	1161.41455078125	864.8436889648438	54.45279693603516	1124.961547851563	876.5831298828125	66.34590911865234	1077.3994140625	836.2715454101563	49.42858505249023	1009.190612792969	706.2646484375	1043.007080078125	1150.98681640625	707.6087036132813	188.8773193359375	1035.051391601563	672.6755981445313	193.0005950927734	1077.628051757813	705.15966796875	268.87939453125	1026.076904296875	672.5848999023438	273.5579223632813	1069.219604492188	778.989990234375	646.326416015625	1025.9365234375	717.8534545898438	647.1167602539063	1065.911743164063	772.8062133789063	756.4913940429688	1020.828063964844	718.6736450195313	757.693603515625	1063.714599609375	813.7477416992188	455.9584655761719	1080.486938476563	714.2066040039063	107.8200378417969	1416.322265625	736.4696655273438	126.0015487670898	1334.013305664063	862.6480102539063	1033.132934570313	1341.841552734375	801.9884643554688	924.6204223632813	1396.2529296875	640.0355224609375	43.79224014282227	1374.742065429688	666.6782836914063	64.23115539550781	1414.726806640625	650.790771484375	93.64957427978516	1373.712280273438	750.2384643554688	476.6754455566406	1408.421752929688	796.2980346679688	1081.470703125	1367.772827148438	759.6106567382813	539.0690307617188	1402.187622070313	764.1463012695313	523.173095703125	1279.900756835938	861.8139038085938	57.82688140869141	1327.24755859375	870.4779663085938	71.55625915527344	1372.961669921875	841.93017578125	49.26769256591797	1444.384155273438	698.7316284179688	1046.573486328125	1252.711059570313	701.2286376953125	182.2010803222656	1414.13037109375	669.2924194335938	190.5662994384766	1374.975952148438	705.22119140625	266.4895935058594	1425.191162109375	671.1388549804688	270.0081481933594	1383.78515625	758.4337158203125	655.3033447265625	1407.014770507813	706.4566650390625	655.3931274414063	1354.188110351563	753.7470092773438	764.8323364257813	1407.9716796875	705.6712646484375	765.9378662109375	1358.28173828125	811.75634765625	460.3916625976563	1371.281372070313	
96	0.6333333333333334	713.9927978515625	107.3685684204102	1037.174072265625	735.4720458984375	120.7942810058594	1120.44775390625	880.810791015625	1029.013427734375	1087.114135742188	822.4567260742188	919.8413696289063	1032.3525390625	639.0037841796875	42.58255386352539	1083.873657226563	663.3741455078125	57.22092819213867	1044.871459960938	649.6637573242188	91.2628173828125	1085.544555664063	751.8262939453125	471.1379699707031	1034.923706054688	809.72998046875	1089.255981445313	1049.125732421875	757.0574951171875	537.5745239257813	1040.129760742188	761.6915893554688	517.8323364257813	1161.402954101563	864.8359375	54.46401977539063	1124.966430664063	876.5812377929688	66.34745788574219	1077.389038085938	836.266357421875	49.43168640136719	1009.182739257813	706.256591796875	1042.997680664063	1150.957275390625	707.6006469726563	188.873046875	1035.038940429688	672.6776733398438	192.9998321533203	1077.62255859375	705.1538696289063	268.877685546875	1026.063598632813	672.5806884765625	273.55322265625	1069.218872070313	778.9888916015625	646.326416015625	1025.920166015625	717.8440551757813	647.1138916015625	1065.885131835938	772.7980346679688	756.4913330078125	1020.811645507813	718.6693725585938	757.6919555664063	1063.701171875	813.7431030273438	455.9521789550781	1080.479125976563	714.210693359375	107.8028259277344	1416.314453125	736.4523315429688	126.0085372924805	1333.998901367188	862.6377563476563	1033.127075195313	1341.827880859375	801.9729614257813	924.62548828125	1396.23828125	640.0372314453125	43.79184722900391	1374.738403320313	666.6709594726563	64.23834991455078	1414.730102539063	650.7771606445313	93.65021514892578	1373.69775390625	750.2316284179688	476.6823425292969	1408.400756835938	796.2807006835938	1081.461181640625	1367.765747070313	759.5916137695313	539.0711059570313	1402.174072265625	764.1265258789063	523.1754150390625	1279.885864257813	861.8033447265625	57.83232879638672	1327.243896484375	870.4656372070313	71.5640869140625	1372.97021484375	841.9388427734375	49.26985168457031	1444.374145507813	698.7300415039063	1046.564086914063	1252.673217773438	701.2362670898438	182.1969299316406	1414.12890625	669.2859497070313	190.5699768066406	1374.97509765625	705.2127075195313	266.4841003417969	1425.18115234375	671.13134765625	270.0061340332031	1383.7724609375	758.4064331054688	655.3031005859375	1406.982788085938	706.4352416992188	655.3958129882813	1354.158447265625	753.725830078125	764.833251953125	1407.953125	705.664794921875	765.9317016601563	1358.271850585938	811.7420043945313	460.3908081054688	1371.2568359375	
97	0.64	713.9906005859375	107.3599166870117	1037.169677734375	735.4666137695313	120.791862487793	1120.441284179688	880.8027954101563	1029.014770507813	1087.096069335938	822.451171875	919.8396606445313	1032.323486328125	639.000244140625	42.58097457885742	1083.870483398438	663.3610229492188	57.2154655456543	1044.87744140625	649.657958984375	91.26589202880859	1085.539184570313	751.8146362304688	471.1348571777344	1034.91796875	809.7118530273438	1089.252685546875	1049.089111328125	757.0562744140625	537.5675659179688	1040.12548828125	761.6927490234375	517.8253784179688	1161.3876953125	864.8336791992188	54.45647430419922	1124.967529296875	876.5738525390625	66.33838653564453	1077.394775390625	836.267822265625	49.42939376831055	1009.177490234375	706.2413940429688	1042.996459960938	1150.941284179688	707.5982666015625	188.8717041015625	1035.042358398438	672.665283203125	193.0020751953125	1077.61328125	705.1532592773438	268.8772277832031	1026.061279296875	672.5841064453125	273.5508117675781	1069.212524414063	778.9776000976563	646.3296508789063	1025.904663085938	717.8460693359375	647.1175537109375	1065.869262695313	772.7863159179688	756.4847412109375	1020.787902832031	718.6612548828125	757.6929931640625	1063.679321289063	813.7277221679688	455.958984375	1080.469482421875	714.1585693359375	107.7457580566406	1416.0263671875	736.4644775390625	126.0010223388672	1334.002197265625	862.6243286132813	1033.124389648438	1341.813110351563	801.9584350585938	924.6223754882813	1396.20654296875	640.031982421875	43.78638076782227	1374.733642578125	666.6731567382813	64.22782135009766	1414.723876953125	650.78662109375	93.64528656005859	1373.715209960938	750.212646484375	476.682861328125	1408.391357421875	796.2647705078125	1081.453979492188	1367.7421875	759.5631103515625	539.0703735351563	1402.158935546875	764.1173706054688	523.1631469726563	1279.861328125	861.8052978515625	57.83121871948242	1327.249267578125	870.4705810546875	71.56266021728516	1372.962890625	841.9370727539063	49.27142715454102	1444.37158203125	698.70703125	1046.561767578125	1252.659545898438	701.2271118164063	182.2026977539063	1414.134399414063	669.2753295898438	190.5704040527344	1374.9697265625	705.2003173828125	266.4909057617188	1425.173828125	671.1249389648438	270.0028076171875	1383.759521484375	758.3897094726563	655.3033447265625	1406.965942382813	706.4147338867188	655.3992309570313	1354.142822265625	753.7089233398438	764.8333740234375	1407.928344726563	705.649169921875	765.9386596679688	1358.247802734375	811.7182006835938	460.4019165039063	1371.258178710938	
